<svg width="24" height="24" viewBox="0 0 24 24" fill="none" xmlns="http://www.w3.org/2000/svg">
<path d="M11.9998 11.375C13.3308 11.375 14.4098 10.296 14.4098 8.96499C14.4098 7.63399 13.3308 6.55499 11.9998 6.55499C10.6688 6.55499 9.58984 7.63399 9.58984 8.96499C9.58984 10.296 10.6688 11.375 11.9998 11.375Z" stroke="black" stroke-linecap="round" stroke-linejoin="round"/>
<path d="M12.0001 21.915C12.2151 21.915 12.6301 21.86 12.6301 21.045C12.6301 18.475 16.2651 15.655 17.9151 12.47C18.5356 11.4255 18.8685 10.2352 18.8798 9.02033C18.8912 7.80544 18.5806 6.6092 17.9797 5.55327C17.3787 4.49733 16.5089 3.61936 15.4586 3.00861C14.4083 2.39787 13.2151 2.07614 12.0001 2.07614C10.7852 2.07614 9.59189 2.39787 8.5416 3.00861C7.49132 3.61936 6.6215 4.49733 6.02058 5.55327C5.41966 6.6092 5.10908 7.80544 5.12042 9.02033C5.13175 10.2352 5.4646 11.4255 6.08512 12.47C7.73512 15.655 11.3701 18.47 11.3701 21.045C11.3701 21.86 11.7851 21.915 12.0001 21.915Z" stroke="black" stroke-linecap="round" stroke-linejoin="round"/>
</svg>
