<svg width="20" height="20" viewBox="0 0 20 20" fill="none" xmlns="http://www.w3.org/2000/svg">
<path d="M19 9.99999C19.003 11.7868 18.4715 13.5336 17.474 15.016C16.6514 16.2429 15.5391 17.2483 14.2355 17.9432C12.9319 18.638 11.4772 19.001 10 19C8.52279 19.001 7.06808 18.638 5.76451 17.9432C4.46093 17.2483 3.34865 16.2429 2.526 15.016C1.74273 13.8484 1.2439 12.5135 1.06951 11.1184C0.895109 9.72331 1.05 8.30674 1.52175 6.98227C1.9935 5.6578 2.769 4.46228 3.78607 3.49154C4.80314 2.52081 6.0335 1.80186 7.37851 1.39233C8.72352 0.982799 10.1458 0.894084 11.5312 1.13329C12.9167 1.3725 14.2269 1.93299 15.3567 2.76981C16.4865 3.60663 17.4046 4.69651 18.0373 5.95209C18.67 7.20767 18.9997 8.59401 19 9.99999Z" stroke="black"/>
<path d="M11.5004 7C11.5004 7.39782 11.3423 7.77936 11.061 8.06066C10.7797 8.34196 10.3982 8.5 10.0004 8.5V9.5C10.3287 9.5 10.6538 9.43534 10.9571 9.3097C11.2604 9.18406 11.536 8.99991 11.7681 8.76777C12.0003 8.53562 12.1844 8.26002 12.3101 7.95671C12.4357 7.65339 12.5004 7.3283 12.5004 7H11.5004ZM10.0004 8.5C9.60255 8.5 9.22102 8.34196 8.93971 8.06066C8.65841 7.77936 8.50037 7.39782 8.50037 7H7.50037C7.50037 7.3283 7.56504 7.65339 7.69068 7.95671C7.81631 8.26002 8.00046 8.53562 8.23261 8.76777C8.70145 9.23661 9.33733 9.5 10.0004 9.5V8.5ZM8.50037 7C8.50037 6.60218 8.65841 6.22064 8.93971 5.93934C9.22102 5.65804 9.60255 5.5 10.0004 5.5V4.5C9.33733 4.5 8.70145 4.76339 8.23261 5.23223C7.76377 5.70107 7.50037 6.33696 7.50037 7H8.50037ZM10.0004 5.5C10.3982 5.5 10.7797 5.65804 11.061 5.93934C11.3423 6.22064 11.5004 6.60218 11.5004 7H12.5004C12.5004 6.33696 12.237 5.70107 11.7681 5.23223C11.2993 4.76339 10.6634 4.5 10.0004 4.5V5.5ZM3.16637 15.856L2.68637 15.714L2.60938 15.975L2.78637 16.182L3.16637 15.856ZM16.8344 15.856L17.2144 16.182L17.3914 15.975L17.3134 15.714L16.8344 15.856ZM7.00037 13.5H13.0004V12.5H7.00037V13.5ZM7.00037 12.5C6.03131 12.5002 5.08817 12.813 4.31112 13.3921C3.53408 13.9711 2.96362 14.7854 2.68637 15.714L3.64537 15.999C3.86123 15.2769 4.30429 14.6437 4.90872 14.1935C5.51315 13.7433 6.2467 13.5001 7.00037 13.5V12.5ZM10.0004 18.5C8.77364 18.5013 7.56123 18.2364 6.4468 17.7237C5.33237 17.2109 4.34246 16.4625 3.54537 15.53L2.78637 16.182C3.67743 17.2238 4.78381 18.0599 6.02924 18.6327C7.27468 19.2055 8.62953 19.5014 10.0004 19.5V18.5ZM13.0004 13.5C13.7542 13.5001 14.4878 13.7435 15.0923 14.1939C15.6967 14.6443 16.1397 15.2777 16.3554 16L17.3134 15.714C17.0361 14.7854 16.4667 13.9711 15.6896 13.3921C14.9126 12.813 13.9694 12.5002 13.0004 12.5V13.5ZM16.4554 15.53C15.6583 16.4625 14.6684 17.2109 13.5539 17.7237C12.4395 18.2364 11.2271 18.5013 10.0004 18.5V19.5C11.3712 19.5014 12.7261 19.2055 13.9715 18.6327C15.2169 18.0599 16.3233 17.2238 17.2144 16.182L16.4554 15.53Z" fill="black"/>
</svg>
