<svg width="20" height="21" viewBox="0 0 20 21" fill="none" xmlns="http://www.w3.org/2000/svg">
<path d="M10 0.25C12.5068 0.25 14.8273 0.692 16.5628 1.45142C17.4284 1.83058 18.1976 2.30942 18.7642 2.89658C19.2896 3.43825 19.6796 4.11858 19.7413 4.90725L19.75 5.125V15.9583C19.75 16.8402 19.3373 17.5942 18.7642 18.1868C18.1976 18.7739 17.4284 19.2528 16.5628 19.6319C14.8273 20.3903 12.5068 20.8333 10 20.8333C7.49317 20.8333 5.17267 20.3913 3.43717 19.6319C2.57158 19.2528 1.80242 18.7739 1.23583 18.1868C0.710417 17.6451 0.320417 16.9648 0.258667 16.1761L0.25 15.9583V5.125C0.25 4.24317 0.66275 3.48917 1.23583 2.89658C1.80242 2.30942 2.57158 1.83058 3.43717 1.45142C5.17267 0.693084 7.49317 0.25 10 0.25ZM17.5833 13.6909C17.2551 13.888 16.9142 14.0632 16.5628 14.2153C14.8273 14.9736 12.5068 15.4167 10 15.4167C7.49317 15.4167 5.17267 14.9747 3.43717 14.2153C3.08579 14.0632 2.74488 13.888 2.41667 13.6909V15.9583C2.41667 16.123 2.48817 16.3657 2.79367 16.6809C3.1035 17.0016 3.604 17.3396 4.306 17.6473C5.70783 18.2604 7.71958 18.6667 10 18.6667C12.2804 18.6667 14.2922 18.2604 15.694 17.6473C16.396 17.3396 16.8965 17.0016 17.2063 16.6809C17.5118 16.3668 17.5833 16.123 17.5833 15.9583V13.6909ZM17.5833 8.27425C17.2551 8.47138 16.9142 8.64654 16.5628 8.79858C14.8273 9.55692 12.5068 10 10 10C7.49317 10 5.17267 9.558 3.43717 8.79858C3.08579 8.64654 2.74488 8.47138 2.41667 8.27425V10.5417C2.41667 10.7063 2.48817 10.949 2.79367 11.2642C3.1035 11.5849 3.604 11.9229 4.306 12.2306C5.70783 12.8438 7.71958 13.25 10 13.25C12.2804 13.25 14.2922 12.8438 15.694 12.2306C16.396 11.9229 16.8965 11.5849 17.2063 11.2642C17.5118 10.9501 17.5833 10.7063 17.5833 10.5417V8.27425ZM10 2.41667C7.71958 2.41667 5.70783 2.82292 4.306 3.43608C3.604 3.74375 3.1035 4.08175 2.79367 4.40242C2.48817 4.71658 2.41667 4.96033 2.41667 5.125C2.41667 5.28967 2.48817 5.53233 2.79367 5.84758C3.1035 6.16825 3.604 6.50625 4.306 6.81392C5.70783 7.42708 7.71958 7.83333 10 7.83333C12.2804 7.83333 14.2922 7.42708 15.694 6.81392C16.396 6.50625 16.8965 6.16825 17.2063 5.84758C17.5118 5.53342 17.5833 5.28967 17.5833 5.125C17.5833 4.96033 17.5118 4.71767 17.2063 4.40242C16.8965 4.08175 16.396 3.74375 15.694 3.43608C14.2922 2.82292 12.2804 2.41667 10 2.41667Z" fill="black"/>
</svg>
